<svg width="88" height="77" viewBox="0 0 88 77" fill="none" xmlns="http://www.w3.org/2000/svg">
<g clip-path="url(#clip0)">
<path d="M38.3488 76.9248L29.9613 74.2629C29.0813 73.9922 28.5863 72.9846 28.8338 72.0221L47.6025 1.30842C47.85 0.345923 48.7713 -0.195483 49.6513 0.0752199L58.0388 2.73713C58.9188 3.00784 59.4138 4.01545 59.1663 4.97795L40.3975 75.6916C40.1363 76.6541 39.2288 77.2106 38.3488 76.9248ZM22.6738 60.051L28.655 53.0729C29.2875 52.336 29.2463 51.1629 28.545 50.4862L16.0875 38.5L28.545 26.5139C29.2463 25.8371 29.3013 24.6641 28.655 23.9272L22.6738 16.949C22.055 16.2272 21.01 16.1821 20.3363 16.8739L0.52252 37.1766C-0.17873 37.8834 -0.17873 39.1016 0.52252 39.8084L20.3363 60.1262C21.01 60.818 22.055 60.7879 22.6738 60.051ZM67.6638 60.1412L87.4775 39.8235C88.1788 39.1166 88.1788 37.8985 87.4775 37.1916L67.6638 16.8588C67.0038 16.1821 65.9588 16.2121 65.3263 16.934L59.345 23.9121C58.7125 24.6491 58.7538 25.8221 59.455 26.4989L71.9125 38.5L59.455 50.4862C58.7538 51.1629 58.6988 52.336 59.345 53.0729L65.3263 60.051C65.945 60.7879 66.99 60.818 67.6638 60.1412Z" fill="black"/>
</g>
<defs>
<clipPath id="clip0">
<rect width="88" height="77" fill="white" transform="matrix(-1 0 0 1 88 0)"/>
</clipPath>
</defs>
</svg>
