<svg width="88" height="77" viewBox="0 0 88 77" fill="none" xmlns="http://www.w3.org/2000/svg">
<path d="M77.0703 14.9671C76.99 14.596 76.5881 14.3486 76.1863 14.3486C75.7845 14.3486 68.1498 13.9157 68.1498 13.9157C68.1498 13.9157 62.8457 9.83373 62.2027 9.4008C61.6402 8.96787 60.4347 9.09157 60.0329 9.21526C59.9525 9.21526 58.8274 9.46265 57.0594 9.89558C55.2913 5.93735 52.1571 2.28835 46.6119 2.28835C46.4511 2.28835 46.2904 2.28835 46.1297 2.28835C44.5224 0.680321 42.5936 0 40.9059 0C27.9671 0 21.779 12.4313 19.8502 18.7398C14.8676 19.9149 11.2511 20.7807 10.8493 20.9044C8.03653 21.5847 7.95616 21.6466 7.6347 23.6875C7.31324 25.1719 0 68.7743 0 68.7743L57.0594 77L88 71.8667C88 71.8667 77.1507 15.4 77.0703 14.9671ZM53.8447 10.6378C52.3982 11.0088 50.7909 11.3799 49.0228 11.8129C49.0228 11.5655 49.0228 11.3181 49.0228 11.0088C49.0228 8.53494 48.5406 6.55582 47.8977 5.00964C50.7909 5.25703 52.6393 7.73092 53.8447 10.6378ZM44.3616 5.44257C45.1653 6.98876 45.6475 9.15341 45.6475 12.1221C45.6475 12.2458 45.6475 12.4313 45.6475 12.555C42.5132 13.2972 39.0575 14.1012 35.6822 14.9052C37.611 9.27711 41.2274 6.49398 44.3616 5.44257ZM40.5041 2.65944C41.0667 2.65944 41.6292 2.78313 42.1918 3.09237C38.0932 4.57671 33.5927 8.3494 31.7443 15.8948C29.0119 16.5751 26.3598 17.1936 23.8685 17.7502C26.0384 11.9984 31.2621 2.65944 40.5041 2.65944Z" fill="#95BF47"/>
<path d="M76.1863 14.3486C75.7844 14.3486 68.1497 13.9156 68.1497 13.9156C68.1497 13.9156 62.8456 9.83372 62.2027 9.40079C61.9616 9.21525 61.7205 9.1534 61.3991 9.09155L57.0593 77L88 71.8667C88 71.8667 77.1507 15.4 77.0703 15.0289C76.9899 14.596 76.5077 14.4104 76.1863 14.3486Z" fill="#5E8E3E"/>
<path d="M46.5316 27.5221L42.7544 36.2426C42.7544 36.2426 39.379 34.882 35.3608 34.882C29.3334 34.882 29.0923 37.7888 29.0923 38.531C29.0923 42.4892 42.5937 44.0354 42.5937 53.3744C42.5937 60.7342 36.5663 65.4346 28.369 65.4346C18.5644 65.4346 13.5818 60.7342 13.5818 60.7342L16.2338 54.0547C16.2338 54.0547 21.3772 57.4563 25.7169 57.4563C28.5297 57.4563 29.7352 55.7246 29.7352 54.4876C29.7352 49.2924 18.6448 49.045 18.6448 40.5101C18.6448 33.3358 25.3151 26.347 38.8969 26.347C43.9599 26.347 46.5316 27.5221 46.5316 27.5221Z" fill="white"/>
</svg>
