<svg width="86" height="75" viewBox="0 0 86 75" fill="none" xmlns="http://www.w3.org/2000/svg">
<path d="M9.60469 24.4762L27.05 66.2848C14.8469 61.1113 6.44219 50.1629 6.44219 37.5C6.44219 32.8529 7.57656 28.4615 9.60469 24.4762ZM67.6813 35.8908C67.6813 31.9355 66.0656 29.1984 64.6734 27.0629C62.8172 24.4311 61.0813 22.1902 61.0813 19.5584C61.0813 16.6107 63.625 13.8736 67.2172 13.8736C67.3719 13.8736 67.5266 13.8887 67.6984 13.9037C61.1844 8.68516 52.5219 5.49688 43 5.49688C30.2297 5.49688 18.9891 11.2268 12.4406 19.9193C13.3 19.9494 14.1078 19.9645 14.7953 19.9645C18.6109 19.9645 24.5406 19.5584 24.5406 19.5584C26.5172 19.4531 26.7406 21.9947 24.7812 22.1902C24.7812 22.1902 22.8047 22.3857 20.6047 22.491L33.925 57.141L41.9344 36.1465L36.2453 22.491C34.2687 22.3857 32.4125 22.1902 32.4125 22.1902C30.4359 22.085 30.6766 19.4531 32.6359 19.5584C32.6359 19.5584 38.6688 19.9645 42.2609 19.9645C46.0766 19.9645 52.0062 19.5584 52.0062 19.5584C53.9828 19.4531 54.2062 21.9947 52.2469 22.1902C52.2469 22.1902 50.2703 22.3857 48.0703 22.491L61.2875 56.8853L64.9313 46.2227C66.4781 41.8012 67.6813 38.6279 67.6813 35.8908ZM43.6359 40.2973L32.6703 68.1947C35.9531 69.0369 39.4078 69.5031 43 69.5031C47.2625 69.5031 51.3359 68.8564 55.1344 67.6834C55.0312 67.548 54.9453 67.3977 54.8766 67.2473L43.6359 40.2973ZM75.0891 22.1451C75.2438 23.1678 75.3297 24.2506 75.3297 25.4387C75.3297 28.6871 74.6422 32.3266 72.5453 36.8984L61.3734 65.1568C72.2531 59.6074 79.5578 49.3057 79.5578 37.5C79.5578 31.9355 77.9422 26.702 75.0891 22.1451ZM85.625 37.5C85.625 58.0734 66.4953 74.7969 43 74.7969C19.4875 74.7969 0.375 58.0584 0.375 37.5C0.375 16.9266 19.4875 0.203125 43 0.203125C66.4953 0.203125 85.625 16.9266 85.625 37.5ZM83.6656 37.5C83.6656 17.874 65.4125 1.91758 43 1.91758C20.5703 1.91758 2.33437 17.874 2.33437 37.5C2.33437 57.126 20.5875 73.0824 43 73.0824C65.4297 73.0824 83.6656 57.126 83.6656 37.5Z" fill="black"/>
</svg>
