<svg width="131" height="103" viewBox="0 0 131 103" fill="none" xmlns="http://www.w3.org/2000/svg">
<path d="M118.719 51.5H98.25V38.625C98.25 31.5236 105.593 25.75 114.625 25.75H116.672C120.075 25.75 122.812 23.5975 122.812 20.9219V11.2656C122.812 8.59004 120.075 6.4375 116.672 6.4375H114.625C92.007 6.4375 73.6875 20.8414 73.6875 38.625V86.9062C73.6875 92.2373 79.1885 96.5625 85.9688 96.5625H118.719C125.499 96.5625 131 92.2373 131 86.9062V61.1562C131 55.8252 125.499 51.5 118.719 51.5ZM45.0312 51.5H24.5625V38.625C24.5625 31.5236 31.9057 25.75 40.9375 25.75H42.9844C46.3873 25.75 49.125 23.5975 49.125 20.9219V11.2656C49.125 8.59004 46.3873 6.4375 42.9844 6.4375H40.9375C18.3195 6.4375 0 20.8414 0 38.625V86.9062C0 92.2373 5.50098 96.5625 12.2812 96.5625H45.0312C51.8115 96.5625 57.3125 92.2373 57.3125 86.9062V61.1562C57.3125 55.8252 51.8115 51.5 45.0312 51.5Z" fill="white"/>
</svg>
