<svg width="162" height="143" viewBox="0 0 162 143" fill="none" xmlns="http://www.w3.org/2000/svg">
<g clip-path="url(#clip0)">
<path d="M105.796 29.0865C99.9995 29.8809 93.7347 32.7342 90.3554 36.1246C84.1033 42.4018 83.8122 51.1966 89.5454 61.0769C91.4439 64.3553 93.0765 66.4254 95.4306 68.5625C98.6073 71.4382 102.113 73.1949 106.201 73.967C107.707 74.2467 111.846 74.2467 113.466 73.9558C119.262 72.9264 124.869 70.2633 128.122 67.0072C134.26 60.8643 134.602 52.1477 129.109 42.1668C124.92 34.5693 118.87 30.0152 111.719 29.0753C110.137 28.8739 107.315 28.8739 105.796 29.0865ZM107.732 42.9613C108.644 43.3977 110.011 44.6397 110.947 45.8593C112.567 48.0189 114.681 52.2149 115.453 54.8332C115.959 56.5452 115.997 57.7984 115.579 58.6152C114.807 60.1481 112.63 61.0992 110.998 60.6293C109.264 60.1258 107.024 57.2613 104.708 52.6289C103.315 49.8315 102.67 47.7727 102.657 46.1055C102.657 44.7628 102.835 44.2257 103.467 43.6103C104.568 42.5473 106.302 42.2899 107.732 42.9613Z" fill="white"/>
<path d="M62.6636 46.5866C56.2215 49.1713 50.8173 51.3756 50.6528 51.4875C50.4756 51.5994 50.2225 51.8904 50.0833 52.1253C49.5264 53.0876 49.0201 52.0134 58.9173 71.3151C63.9165 81.0722 68.1564 89.2964 68.3336 89.5873C68.7639 90.3034 69.46 90.6727 70.3712 90.6727C70.9661 90.6727 72.1178 90.2363 82.5086 86.0738C88.824 83.545 94.2283 81.3519 94.5194 81.2065C95.2534 80.826 95.6204 80.2554 95.6204 79.4833C95.6204 78.9238 95.4306 78.4986 93.5575 74.8509C92.4058 72.6466 91.33 70.6885 91.1528 70.4983C90.7478 70.0731 90.1656 69.8605 89.4189 69.8605C88.9253 69.8605 88.0647 70.1626 84.1286 71.7515C81.5467 72.7809 79.3192 73.6648 79.18 73.6984C78.9522 73.7655 78.8383 73.6089 78.2561 72.4676C77.889 71.7515 77.6359 71.1249 77.6992 71.0689C77.7498 71.0242 79.6103 70.2521 81.8251 69.3681C84.04 68.473 85.9637 67.6562 86.1156 67.5443C86.4826 67.2533 86.837 66.5148 86.837 66.0001C86.837 65.6645 86.3434 64.6015 84.7993 61.5803C83.1287 58.313 82.6858 57.5298 82.2934 57.1941C81.7618 56.7465 80.9645 56.5004 80.4203 56.6123C80.2304 56.6458 78.2308 57.4067 75.9779 58.3019C73.7251 59.197 71.8647 59.9019 71.8267 59.8796C71.7508 59.8012 70.4092 57.1605 70.4472 57.127C70.4598 57.1158 72.5987 56.2542 75.2059 55.2136C78.2814 53.9828 80.1039 53.1883 80.4203 52.9422C81.0025 52.5058 81.3189 51.7673 81.205 51.1854C81.1543 50.9616 80.1672 48.9476 79.0028 46.7097C76.5728 42.0102 76.5601 41.9766 75.1553 41.9206L74.3706 41.8759L62.6636 46.5866Z" fill="white"/>
<path d="M38.4901 56.3326C32.0734 57.183 26.1376 59.6558 22.5939 62.9343C19.0754 66.2016 17.4301 70.4536 18.1769 74.2915C19.0122 78.4987 21.9104 81.8667 26.2515 83.6794C29.1372 84.8766 32.2759 85.6151 37.5409 86.3089C41.9453 86.8907 42.9325 87.1481 43.2489 87.8418C43.4134 88.1775 43.4008 88.2558 43.1729 88.6586C42.8945 89.151 42.0845 89.6657 40.9581 90.0797C39.3761 90.6727 37.0473 91.0084 33.8579 91.0979C31.5039 91.1763 31.4279 91.1874 30.9217 91.4896C30.6306 91.6574 30.2762 91.9931 30.137 92.2392C29.6181 93.1344 29.6814 93.291 32.162 98.136C33.4023 100.575 34.5667 102.69 34.7186 102.847C34.8831 103.003 35.2628 103.227 35.5665 103.339C36.1867 103.585 37.0853 103.563 39.5659 103.25C44.5904 102.601 49.8554 100.62 53.5637 97.9682C57.1708 95.3946 59.8159 91.5679 60.3854 88.1104C60.6006 86.8348 60.4867 84.7088 60.145 83.5563C59.4995 81.352 58.1706 79.282 56.4114 77.749C54.6522 76.2161 52.7284 75.2538 49.6276 74.3363C46.4636 73.4076 44.5651 73.0495 40.8315 72.6691C37.6801 72.3334 35.9969 71.9529 35.1995 71.3487C34.7186 71.0018 34.7186 70.7557 35.2122 70.2633C36.3639 69.0997 39.3381 68.3612 43.4894 68.2269C45.1347 68.1709 45.4764 68.1262 46.0206 67.8912C46.9192 67.522 47.2862 66.9961 47.2862 66.1233C47.2736 65.4855 47.1343 65.1722 45.1473 61.3007C43.9703 59.018 42.9072 57.0263 42.7679 56.8585C42.4262 56.4109 41.5656 56.0976 40.7556 56.1088C40.3759 56.1088 39.3634 56.2095 38.4901 56.3326Z" fill="white"/>
<path d="M127.021 75.0635C118.743 75.8915 111.669 76.6077 111.314 76.686L110.669 76.8091L110.719 77.335C110.757 77.6259 111.15 78.6889 111.593 79.7071C112.036 80.7253 112.403 81.6988 112.403 81.8555C112.403 82.124 112.2 82.2359 109.846 83.2653C106.416 84.7535 104.442 85.9172 100.316 88.8824C96.0255 91.9595 92.7602 93.1343 87.4319 93.47C82.7997 93.7721 81.977 93.8393 80.3064 94.0854C76.1425 94.712 72.295 95.8086 68.5741 97.4534C65.372 98.8745 63.2964 100.083 59.8792 102.522C54.7788 106.148 52.2728 107.043 46.2105 107.345C41.6795 107.569 38.7686 107.96 35.5159 108.755C34.6047 108.967 33.4909 109.303 33.0353 109.493L32.1873 109.829L32.2506 110.288C32.3266 110.892 33.2505 113.04 33.6048 113.432L33.8706 113.734L34.8958 113.454C36.9967 112.895 38.7306 112.682 42.5022 112.492C48.5772 112.19 53.1967 111.183 57.7277 109.191C60.6386 107.915 62.6636 106.729 66.0808 104.313C69.9663 101.56 72.4975 100.34 76.0159 99.5123C77.9397 99.0535 79.4458 98.8633 82.0277 98.729C84.7741 98.5836 86.1916 98.4605 88.2292 98.1584C95.0636 97.1513 100.835 94.7344 107.138 90.2363C110.517 87.8306 113.061 86.4207 114.099 86.376C114.478 86.3648 114.478 86.376 115.44 88.4908C116.516 90.8965 116.769 91.344 117.01 91.344C117.111 91.344 118.427 90.5496 119.958 89.5761C135.627 79.5505 143.132 74.7167 143.347 74.5376C143.55 74.3698 143.562 74.3138 143.436 74.2355C143.309 74.1684 143.373 74.0677 143.689 73.8439L144.107 73.553L143.094 73.5642C142.537 73.5753 135.31 74.2467 127.021 75.0635Z" fill="white"/>
<path d="M128.16 87.7523C127.16 88.1663 126.388 88.8489 125.907 89.7552L125.502 90.5049V116.576C125.502 141.383 125.515 142.67 125.73 142.961L125.958 143.263L133.121 143.24L140.297 143.207L140.462 142.703C140.601 142.289 140.626 137.321 140.601 116.296L140.563 90.393L140.234 89.7664C139.753 88.8712 139.095 88.2782 138.07 87.8194L137.171 87.4278H133.045L128.919 87.439L128.16 87.7523Z" fill="white"/>
<path d="M111.757 92.463C110.403 92.6756 109.15 93.5708 108.517 94.7569L108.163 95.4282L108.137 118.758C108.112 137.12 108.137 142.211 108.264 142.647L108.416 143.207H115.693H122.971L123.122 142.647C123.249 142.211 123.274 137.12 123.249 118.758L123.224 95.4282L122.869 94.7569C122.414 93.8841 121.553 93.1232 120.579 92.7204L119.807 92.4071L116.073 92.3847C114.023 92.3735 112.074 92.4071 111.757 92.463Z" fill="white"/>
<path d="M94.6206 97.3751C93.2031 97.5542 91.8995 98.4157 91.2414 99.6018L90.8237 100.352L90.7858 121.276C90.7604 138.216 90.7858 142.3 90.925 142.703L91.0895 143.207L98.2656 143.24L105.429 143.263L105.657 142.961C105.872 142.67 105.885 141.595 105.885 121.499V100.352L105.543 99.7361C105.024 98.8074 104.417 98.2479 103.391 97.7668L102.467 97.3416L98.8604 97.3192C96.8734 97.308 94.975 97.3304 94.6206 97.3751Z" fill="white"/>
<path d="M76.2311 104.794C75.2692 105.129 74.3959 105.868 73.9024 106.763L73.4847 107.513L73.4467 124.912C73.4214 139.38 73.4467 142.401 73.5859 142.77L73.7631 143.207H80.9645H88.1659L88.3558 142.871C88.5203 142.58 88.5456 140.443 88.5456 125.08V107.625L88.1533 106.897C87.609 105.879 87.1028 105.409 86.0523 104.939L85.1537 104.548L81.0278 104.559C77.1423 104.559 76.8639 104.581 76.2311 104.794Z" fill="white"/>
<path d="M59.1578 112.582C57.8922 112.984 57.0442 113.645 56.4747 114.73L56.1456 115.345L56.1077 128.84C56.0823 140.007 56.1077 142.401 56.2469 142.77L56.4241 143.207H63.6255H70.8269L71.0167 142.871C71.1812 142.58 71.2065 140.879 71.2065 129.108V115.681L70.9028 114.976C70.4978 114.025 69.7005 113.264 68.6373 112.805L67.7894 112.436L63.8026 112.414C60.2209 112.38 59.7526 112.402 59.1578 112.582Z" fill="white"/>
<path d="M42.0845 119.53C40.7809 119.821 39.5026 120.817 39.0217 121.947L38.7433 122.585V132.532C38.7433 140.969 38.7686 142.547 38.9204 142.871L39.1103 143.263H46.2611H53.4119L53.6397 142.905C53.8548 142.558 53.8675 141.909 53.8675 132.577V122.618L53.5764 121.981C53.184 121.13 52.2095 120.19 51.2983 119.799L50.5769 119.485L46.5269 119.463C44.2994 119.452 42.2997 119.485 42.0845 119.53Z" fill="white"/>
</g>
<defs>
<clipPath id="clip0">
<rect width="162" height="143" fill="white"/>
</clipPath>
</defs>
</svg>
